<?xml version="1.0" encoding="UTF-8" standalone="no"?>
<!DOCTYPE svg PUBLIC "-//W3C//DTD SVG 1.1//EN"
 "http://www.w3.org/Graphics/SVG/1.1/DTD/svg11.dtd">
<!-- Generated by graphviz version 2.40.1 (20161225.0304)
 -->
<!-- Title: snakemake_dag Pages: 1 -->
<svg width="289pt" height="764pt"
 viewBox="0.00 0.00 288.50 764.00" xmlns="http://www.w3.org/2000/svg" xmlns:xlink="http://www.w3.org/1999/xlink">
<g id="graph0" class="graph" transform="scale(1 1) rotate(0) translate(4 760)">
<title>snakemake_dag</title>
<polygon fill="#ffffff" stroke="transparent" points="-4,4 -4,-760 284.5,-760 284.5,4 -4,4"/>
<!-- 0 -->
<g id="node1" class="node">
<title>0</title>
<path fill="none" stroke="#afd856" stroke-width="2" d="M144,-36C144,-36 114,-36 114,-36 108,-36 102,-30 102,-24 102,-24 102,-12 102,-12 102,-6 108,0 114,0 114,0 144,0 144,0 150,0 156,-6 156,-12 156,-12 156,-24 156,-24 156,-30 150,-36 144,-36"/>
<text text-anchor="middle" x="129" y="-15.5" font-family="sans" font-size="10.00" fill="#000000">all_sim</text>
</g>
<!-- 1 -->
<g id="node2" class="node">
<title>1</title>
<path fill="none" stroke="#88d856" stroke-width="2" d="M213,-108C213,-108 143,-108 143,-108 137,-108 131,-102 131,-96 131,-96 131,-84 131,-84 131,-78 137,-72 143,-72 143,-72 213,-72 213,-72 219,-72 225,-78 225,-84 225,-84 225,-96 225,-96 225,-102 219,-108 213,-108"/>
<text text-anchor="middle" x="178" y="-87.5" font-family="sans" font-size="10.00" fill="#000000">compress_fastq</text>
</g>
<!-- 1&#45;&gt;0 -->
<g id="edge2" class="edge">
<title>1&#45;&gt;0</title>
<path fill="none" stroke="#c0c0c0" stroke-width="2" d="M165.6352,-71.8314C160.0491,-63.6232 153.337,-53.7606 147.1928,-44.7323"/>
<polygon fill="#c0c0c0" stroke="#c0c0c0" stroke-width="2" points="150.051,-42.7112 141.5313,-36.4133 144.264,-46.6496 150.051,-42.7112"/>
</g>
<!-- 2 -->
<g id="node3" class="node">
<title>2</title>
<path fill="none" stroke="#56d8a9" stroke-width="2" d="M114,-252C114,-252 28,-252 28,-252 22,-252 16,-246 16,-240 16,-240 16,-228 16,-228 16,-222 22,-216 28,-216 28,-216 114,-216 114,-216 120,-216 126,-222 126,-228 126,-228 126,-240 126,-240 126,-246 120,-252 114,-252"/>
<text text-anchor="middle" x="71" y="-231.5" font-family="sans" font-size="10.00" fill="#000000">create_krona_chart</text>
</g>
<!-- 2&#45;&gt;0 -->
<g id="edge1" class="edge">
<title>2&#45;&gt;0</title>
<path fill="none" stroke="#c0c0c0" stroke-width="2" d="M75.8453,-215.9555C85.9739,-178.235 109.4468,-90.8188 121.5245,-45.8399"/>
<polygon fill="#c0c0c0" stroke="#c0c0c0" stroke-width="2" points="124.9146,-46.7106 124.1277,-36.1451 118.1541,-44.8953 124.9146,-46.7106"/>
</g>
<!-- 3 -->
<g id="node4" class="node">
<title>3</title>
<path fill="none" stroke="#d8bc56" stroke-width="2" d="M211,-180C211,-180 155,-180 155,-180 149,-180 143,-174 143,-168 143,-168 143,-156 143,-156 143,-150 149,-144 155,-144 155,-144 211,-144 211,-144 217,-144 223,-150 223,-156 223,-156 223,-168 223,-168 223,-174 217,-180 211,-180"/>
<text text-anchor="middle" x="183" y="-159.5" font-family="sans" font-size="10.00" fill="#000000">shuffle_fastq</text>
</g>
<!-- 3&#45;&gt;1 -->
<g id="edge3" class="edge">
<title>3&#45;&gt;1</title>
<path fill="none" stroke="#c0c0c0" stroke-width="2" d="M181.7383,-143.8314C181.2035,-136.131 180.5677,-126.9743 179.9734,-118.4166"/>
<polygon fill="#c0c0c0" stroke="#c0c0c0" stroke-width="2" points="183.4632,-118.1467 179.2787,-108.4133 176.48,-118.6317 183.4632,-118.1467"/>
</g>
<!-- 4 -->
<g id="node5" class="node">
<title>4</title>
<path fill="none" stroke="#56d8d0" stroke-width="2" d="M130,-396C130,-396 12,-396 12,-396 6,-396 0,-390 0,-384 0,-384 0,-372 0,-372 0,-366 6,-360 12,-360 12,-360 130,-360 130,-360 136,-360 142,-366 142,-372 142,-372 142,-384 142,-384 142,-390 136,-396 130,-396"/>
<text text-anchor="middle" x="71" y="-375.5" font-family="sans" font-size="10.00" fill="#000000">create_read_counts_table</text>
</g>
<!-- 4&#45;&gt;2 -->
<g id="edge4" class="edge">
<title>4&#45;&gt;2</title>
<path fill="none" stroke="#c0c0c0" stroke-width="2" d="M71,-359.7623C71,-335.201 71,-291.2474 71,-262.3541"/>
<polygon fill="#c0c0c0" stroke="#c0c0c0" stroke-width="2" points="74.5001,-262.0896 71,-252.0896 67.5001,-262.0897 74.5001,-262.0896"/>
</g>
<!-- 7 -->
<g id="node8" class="node">
<title>7</title>
<path fill="none" stroke="#d85656" stroke-width="2" d="M223,-324C223,-324 155,-324 155,-324 149,-324 143,-318 143,-312 143,-312 143,-300 143,-300 143,-294 149,-288 155,-288 155,-288 223,-288 223,-288 229,-288 235,-294 235,-300 235,-300 235,-312 235,-312 235,-318 229,-324 223,-324"/>
<text text-anchor="middle" x="189" y="-303.5" font-family="sans" font-size="10.00" fill="#000000">generate_reads</text>
</g>
<!-- 4&#45;&gt;7 -->
<g id="edge9" class="edge">
<title>4&#45;&gt;7</title>
<path fill="none" stroke="#c0c0c0" stroke-width="2" d="M100.7764,-359.8314C115.8693,-350.6221 134.3757,-339.3301 150.5343,-329.4706"/>
<polygon fill="#c0c0c0" stroke="#c0c0c0" stroke-width="2" points="152.5198,-332.3593 159.2331,-324.1628 148.8737,-326.3838 152.5198,-332.3593"/>
</g>
<!-- 5 -->
<g id="node6" class="node">
<title>5</title>
<path fill="none" stroke="#ced856" stroke-width="2" d="M221.5,-252C221.5,-252 156.5,-252 156.5,-252 150.5,-252 144.5,-246 144.5,-240 144.5,-240 144.5,-228 144.5,-228 144.5,-222 150.5,-216 156.5,-216 156.5,-216 221.5,-216 221.5,-216 227.5,-216 233.5,-222 233.5,-228 233.5,-228 233.5,-240 233.5,-240 233.5,-246 227.5,-252 221.5,-252"/>
<text text-anchor="middle" x="189" y="-231.5" font-family="sans" font-size="10.00" fill="#000000">combine_fastq</text>
</g>
<!-- 5&#45;&gt;3 -->
<g id="edge5" class="edge">
<title>5&#45;&gt;3</title>
<path fill="none" stroke="#c0c0c0" stroke-width="2" d="M187.4859,-215.8314C186.8442,-208.131 186.0812,-198.9743 185.3681,-190.4166"/>
<polygon fill="#c0c0c0" stroke="#c0c0c0" stroke-width="2" points="188.8529,-190.088 184.5344,-180.4133 181.8771,-190.6694 188.8529,-190.088"/>
</g>
<!-- 6 -->
<g id="node7" class="node">
<title>6</title>
<path fill="none" stroke="#68d856" stroke-width="2" d="M113,-468C113,-468 17,-468 17,-468 11,-468 5,-462 5,-456 5,-456 5,-444 5,-444 5,-438 11,-432 17,-432 17,-432 113,-432 113,-432 119,-432 125,-438 125,-444 125,-444 125,-456 125,-456 125,-462 119,-468 113,-468"/>
<text text-anchor="middle" x="65" y="-447.5" font-family="sans" font-size="10.00" fill="#000000">get_read_proportions</text>
</g>
<!-- 6&#45;&gt;4 -->
<g id="edge6" class="edge">
<title>6&#45;&gt;4</title>
<path fill="none" stroke="#c0c0c0" stroke-width="2" d="M66.5141,-431.8314C67.1558,-424.131 67.9188,-414.9743 68.6319,-406.4166"/>
<polygon fill="#c0c0c0" stroke="#c0c0c0" stroke-width="2" points="72.1229,-406.6694 69.4656,-396.4133 65.1471,-406.088 72.1229,-406.6694"/>
</g>
<!-- 7&#45;&gt;5 -->
<g id="edge7" class="edge">
<title>7&#45;&gt;5</title>
<path fill="none" stroke="#c0c0c0" stroke-width="2" d="M189,-287.8314C189,-280.131 189,-270.9743 189,-262.4166"/>
<polygon fill="#c0c0c0" stroke="#c0c0c0" stroke-width="2" points="192.5001,-262.4132 189,-252.4133 185.5001,-262.4133 192.5001,-262.4132"/>
</g>
<!-- 8 -->
<g id="node9" class="node">
<title>8</title>
<path fill="none" stroke="#56c1d8" stroke-width="2" d="M188.5,-540C188.5,-540 87.5,-540 87.5,-540 81.5,-540 75.5,-534 75.5,-528 75.5,-528 75.5,-516 75.5,-516 75.5,-510 81.5,-504 87.5,-504 87.5,-504 188.5,-504 188.5,-504 194.5,-504 200.5,-510 200.5,-516 200.5,-516 200.5,-528 200.5,-528 200.5,-534 194.5,-540 188.5,-540"/>
<text text-anchor="middle" x="138" y="-519.5" font-family="sans" font-size="10.00" fill="#000000">download_assemblies</text>
</g>
<!-- 8&#45;&gt;6 -->
<g id="edge8" class="edge">
<title>8&#45;&gt;6</title>
<path fill="none" stroke="#c0c0c0" stroke-width="2" d="M119.579,-503.8314C110.8471,-495.219 100.2683,-484.7851 90.7577,-475.4048"/>
<polygon fill="#c0c0c0" stroke="#c0c0c0" stroke-width="2" points="92.9925,-472.6931 83.4151,-468.1628 88.077,-477.6769 92.9925,-472.6931"/>
</g>
<!-- 11 -->
<g id="node12" class="node">
<title>11</title>
<path fill="none" stroke="#d87556" stroke-width="2" d="M268.5,-468C268.5,-468 155.5,-468 155.5,-468 149.5,-468 143.5,-462 143.5,-456 143.5,-456 143.5,-444 143.5,-444 143.5,-438 149.5,-432 155.5,-432 155.5,-432 268.5,-432 268.5,-432 274.5,-432 280.5,-438 280.5,-444 280.5,-444 280.5,-456 280.5,-456 280.5,-462 274.5,-468 268.5,-468"/>
<text text-anchor="middle" x="212" y="-447.5" font-family="sans" font-size="10.00" fill="#000000">decompress_assemblies</text>
</g>
<!-- 8&#45;&gt;11 -->
<g id="edge14" class="edge">
<title>8&#45;&gt;11</title>
<path fill="none" stroke="#c0c0c0" stroke-width="2" d="M156.6733,-503.8314C165.5249,-495.219 176.2486,-484.7851 185.8895,-475.4048"/>
<polygon fill="#c0c0c0" stroke="#c0c0c0" stroke-width="2" points="188.6061,-477.645 193.3326,-468.1628 183.7246,-472.6279 188.6061,-477.645"/>
</g>
<!-- 9 -->
<g id="node10" class="node">
<title>9</title>
<path fill="none" stroke="#56d88a" stroke-width="2" d="M240.5,-396C240.5,-396 175.5,-396 175.5,-396 169.5,-396 163.5,-390 163.5,-384 163.5,-384 163.5,-372 163.5,-372 163.5,-366 169.5,-360 175.5,-360 175.5,-360 240.5,-360 240.5,-360 246.5,-360 252.5,-366 252.5,-372 252.5,-372 252.5,-384 252.5,-384 252.5,-390 246.5,-396 240.5,-396"/>
<text text-anchor="middle" x="208" y="-375.5" font-family="sans" font-size="10.00" fill="#000000">merge_contigs</text>
</g>
<!-- 9&#45;&gt;7 -->
<g id="edge10" class="edge">
<title>9&#45;&gt;7</title>
<path fill="none" stroke="#c0c0c0" stroke-width="2" d="M203.2055,-359.8314C201.1511,-352.0463 198.704,-342.7729 196.4244,-334.1347"/>
<polygon fill="#c0c0c0" stroke="#c0c0c0" stroke-width="2" points="199.7948,-333.1892 193.8591,-324.4133 193.0265,-334.9753 199.7948,-333.1892"/>
</g>
<!-- 10 -->
<g id="node11" class="node">
<title>10</title>
<path fill="none" stroke="#567bd8" stroke-width="2" d="M199,-612C199,-612 77,-612 77,-612 71,-612 65,-606 65,-600 65,-600 65,-588 65,-588 65,-582 71,-576 77,-576 77,-576 199,-576 199,-576 205,-576 211,-582 211,-588 211,-588 211,-600 211,-600 211,-606 205,-612 199,-612"/>
<text text-anchor="middle" x="138" y="-591.5" font-family="sans" font-size="10.00" fill="#000000">combine_assembly_tables</text>
</g>
<!-- 10&#45;&gt;8 -->
<g id="edge11" class="edge">
<title>10&#45;&gt;8</title>
<path fill="none" stroke="#c0c0c0" stroke-width="2" d="M138,-575.8314C138,-568.131 138,-558.9743 138,-550.4166"/>
<polygon fill="#c0c0c0" stroke="#c0c0c0" stroke-width="2" points="141.5001,-550.4132 138,-540.4133 134.5001,-550.4133 141.5001,-550.4132"/>
</g>
<!-- 11&#45;&gt;9 -->
<g id="edge12" class="edge">
<title>11&#45;&gt;9</title>
<path fill="none" stroke="#c0c0c0" stroke-width="2" d="M210.9906,-431.8314C210.5628,-424.131 210.0541,-414.9743 209.5787,-406.4166"/>
<polygon fill="#c0c0c0" stroke="#c0c0c0" stroke-width="2" points="213.0724,-406.2037 209.023,-396.4133 206.0831,-406.592 213.0724,-406.2037"/>
</g>
<!-- 12 -->
<g id="node13" class="node">
<title>12</title>
<path fill="none" stroke="#56d86b" stroke-width="2" d="M189.5,-684C189.5,-684 86.5,-684 86.5,-684 80.5,-684 74.5,-678 74.5,-672 74.5,-672 74.5,-660 74.5,-660 74.5,-654 80.5,-648 86.5,-648 86.5,-648 189.5,-648 189.5,-648 195.5,-648 201.5,-654 201.5,-660 201.5,-660 201.5,-672 201.5,-672 201.5,-678 195.5,-684 189.5,-684"/>
<text text-anchor="middle" x="138" y="-663.5" font-family="sans" font-size="10.00" fill="#000000">filter_assembly_tables</text>
</g>
<!-- 12&#45;&gt;10 -->
<g id="edge13" class="edge">
<title>12&#45;&gt;10</title>
<path fill="none" stroke="#c0c0c0" stroke-width="2" d="M138,-647.8314C138,-640.131 138,-630.9743 138,-622.4166"/>
<polygon fill="#c0c0c0" stroke="#c0c0c0" stroke-width="2" points="141.5001,-622.4132 138,-612.4133 134.5001,-622.4133 141.5001,-622.4132"/>
</g>
<!-- 13 -->
<g id="node14" class="node">
<title>13</title>
<path fill="none" stroke="#d89c56" stroke-width="2" d="M200,-756C200,-756 76,-756 76,-756 70,-756 64,-750 64,-744 64,-744 64,-732 64,-732 64,-726 70,-720 76,-720 76,-720 200,-720 200,-720 206,-720 212,-726 212,-732 212,-732 212,-744 212,-744 212,-750 206,-756 200,-756"/>
<text text-anchor="middle" x="138" y="-735.5" font-family="sans" font-size="10.00" fill="#000000">generate_assembly_tables</text>
</g>
<!-- 13&#45;&gt;12 -->
<g id="edge15" class="edge">
<title>13&#45;&gt;12</title>
<path fill="none" stroke="#c0c0c0" stroke-width="2" d="M138,-719.8314C138,-712.131 138,-702.9743 138,-694.4166"/>
<polygon fill="#c0c0c0" stroke="#c0c0c0" stroke-width="2" points="141.5001,-694.4132 138,-684.4133 134.5001,-694.4133 141.5001,-694.4132"/>
</g>
</g>
</svg>
