<svg xmlns="http://www.w3.org/2000/svg" xmlns:xlink="http://www.w3.org/1999/xlink" version="1.1" class="marks" width="764" height="349" viewBox="0 0 764 349"><rect width="764" height="349" fill="white"/><g fill="none" stroke-miterlimit="10" transform="translate(60,11)"><g class="mark-group role-frame root" role="graphics-object" aria-roledescription="group mark container"><g transform="translate(0,0)"><path class="background" aria-hidden="true" d="M0.5,0.5h600v300h-600Z" stroke="#ddd"/><g><g class="mark-group role-axis" aria-hidden="true"><g transform="translate(0.5,300.5)"><path class="background" aria-hidden="true" d="M0,0h0v0h0Z" pointer-events="none"/><g><g class="mark-rule role-axis-grid" pointer-events="none"><line transform="translate(0,-300)" x2="0" y2="300" stroke="#ddd" stroke-width="1" opacity="1"/><line transform="translate(46,-300)" x2="0" y2="300" stroke="#ddd" stroke-width="1" opacity="1"/><line transform="translate(92,-300)" x2="0" y2="300" stroke="#ddd" stroke-width="1" opacity="1"/><line transform="translate(138,-300)" x2="0" y2="300" stroke="#ddd" stroke-width="1" opacity="1"/><line transform="translate(185,-300)" x2="0" y2="300" stroke="#ddd" stroke-width="1" opacity="1"/><line transform="translate(231,-300)" x2="0" y2="300" stroke="#ddd" stroke-width="1" opacity="1"/><line transform="translate(277,-300)" x2="0" y2="300" stroke="#ddd" stroke-width="1" opacity="1"/><line transform="translate(323,-300)" x2="0" y2="300" stroke="#ddd" stroke-width="1" opacity="1"/><line transform="translate(369,-300)" x2="0" y2="300" stroke="#ddd" stroke-width="1" opacity="1"/><line transform="translate(415,-300)" x2="0" y2="300" stroke="#ddd" stroke-width="1" opacity="1"/><line transform="translate(462,-300)" x2="0" y2="300" stroke="#ddd" stroke-width="1" opacity="1"/><line transform="translate(508,-300)" x2="0" y2="300" stroke="#ddd" stroke-width="1" opacity="1"/><line transform="translate(554,-300)" x2="0" y2="300" stroke="#ddd" stroke-width="1" opacity="1"/><line transform="translate(600,-300)" x2="0" y2="300" stroke="#ddd" stroke-width="1" opacity="1"/></g></g><path class="foreground" aria-hidden="true" d="" pointer-events="none" display="none"/></g></g><g class="mark-group role-axis" aria-hidden="true"><g transform="translate(0.5,0.5)"><path class="background" aria-hidden="true" d="M0,0h0v0h0Z" pointer-events="none"/><g><g class="mark-rule role-axis-grid" pointer-events="none"><line transform="translate(0,300)" x2="600" y2="0" stroke="#ddd" stroke-width="1" opacity="1"/><line transform="translate(0,270)" x2="600" y2="0" stroke="#ddd" stroke-width="1" opacity="1"/><line transform="translate(0,240)" x2="600" y2="0" stroke="#ddd" stroke-width="1" opacity="1"/><line transform="translate(0,210)" x2="600" y2="0" stroke="#ddd" stroke-width="1" opacity="1"/><line transform="translate(0,180)" x2="600" y2="0" stroke="#ddd" stroke-width="1" opacity="1"/><line transform="translate(0,150)" x2="600" y2="0" stroke="#ddd" stroke-width="1" opacity="1"/><line transform="translate(0,120)" x2="600" y2="0" stroke="#ddd" stroke-width="1" opacity="1"/><line transform="translate(0,90)" x2="600" y2="0" stroke="#ddd" stroke-width="1" opacity="1"/><line transform="translate(0,60)" x2="600" y2="0" stroke="#ddd" stroke-width="1" opacity="1"/><line transform="translate(0,30)" x2="600" y2="0" stroke="#ddd" stroke-width="1" opacity="1"/><line transform="translate(0,0)" x2="600" y2="0" stroke="#ddd" stroke-width="1" opacity="1"/></g></g><path class="foreground" aria-hidden="true" d="" pointer-events="none" display="none"/></g></g><g class="mark-group role-axis" role="graphics-symbol" aria-roledescription="axis" aria-label="X-axis titled 'genomes' for a linear scale with values from 0 to 650"><g transform="translate(0.5,300.5)"><path class="background" aria-hidden="true" d="M0,0h0v0h0Z" pointer-events="none"/><g><g class="mark-rule role-axis-tick" pointer-events="none"><line transform="translate(0,0)" x2="0" y2="5" stroke="#888" stroke-width="1" opacity="1"/><line transform="translate(46,0)" x2="0" y2="5" stroke="#888" stroke-width="1" opacity="1"/><line transform="translate(92,0)" x2="0" y2="5" stroke="#888" stroke-width="1" opacity="1"/><line transform="translate(138,0)" x2="0" y2="5" stroke="#888" stroke-width="1" opacity="1"/><line transform="translate(185,0)" x2="0" y2="5" stroke="#888" stroke-width="1" opacity="1"/><line transform="translate(231,0)" x2="0" y2="5" stroke="#888" stroke-width="1" opacity="1"/><line transform="translate(277,0)" x2="0" y2="5" stroke="#888" stroke-width="1" opacity="1"/><line transform="translate(323,0)" x2="0" y2="5" stroke="#888" stroke-width="1" opacity="1"/><line transform="translate(369,0)" x2="0" y2="5" stroke="#888" stroke-width="1" opacity="1"/><line transform="translate(415,0)" x2="0" y2="5" stroke="#888" stroke-width="1" opacity="1"/><line transform="translate(462,0)" x2="0" y2="5" stroke="#888" stroke-width="1" opacity="1"/><line transform="translate(508,0)" x2="0" y2="5" stroke="#888" stroke-width="1" opacity="1"/><line transform="translate(554,0)" x2="0" y2="5" stroke="#888" stroke-width="1" opacity="1"/><line transform="translate(600,0)" x2="0" y2="5" stroke="#888" stroke-width="1" opacity="1"/></g><g class="mark-text role-axis-label" pointer-events="none"><text text-anchor="start" transform="translate(0,16)" font-family="sans-serif" font-size="12px" fill="#000" opacity="1">0</text><text text-anchor="middle" transform="translate(46.15384615384615,16)" font-family="sans-serif" font-size="12px" fill="#000" opacity="1">50</text><text text-anchor="middle" transform="translate(92.3076923076923,16)" font-family="sans-serif" font-size="12px" fill="#000" opacity="1">100</text><text text-anchor="middle" transform="translate(138.46153846153848,16)" font-family="sans-serif" font-size="12px" fill="#000" opacity="1">150</text><text text-anchor="middle" transform="translate(184.6153846153846,16)" font-family="sans-serif" font-size="12px" fill="#000" opacity="1">200</text><text text-anchor="middle" transform="translate(230.76923076923077,16)" font-family="sans-serif" font-size="12px" fill="#000" opacity="1">250</text><text text-anchor="middle" transform="translate(276.92307692307696,16)" font-family="sans-serif" font-size="12px" fill="#000" opacity="1">300</text><text text-anchor="middle" transform="translate(323.07692307692304,16)" font-family="sans-serif" font-size="12px" fill="#000" opacity="1">350</text><text text-anchor="middle" transform="translate(369.2307692307692,16)" font-family="sans-serif" font-size="12px" fill="#000" opacity="1">400</text><text text-anchor="middle" transform="translate(415.38461538461536,16)" font-family="sans-serif" font-size="12px" fill="#000" opacity="1">450</text><text text-anchor="middle" transform="translate(461.53846153846155,16)" font-family="sans-serif" font-size="12px" fill="#000" opacity="1">500</text><text text-anchor="middle" transform="translate(507.6923076923077,16)" font-family="sans-serif" font-size="12px" fill="#000" opacity="1">550</text><text text-anchor="middle" transform="translate(553.8461538461539,16)" font-family="sans-serif" font-size="12px" fill="#000" opacity="1">600</text><text text-anchor="end" transform="translate(600,16)" font-family="sans-serif" font-size="12px" fill="#000" opacity="1">650</text></g><g class="mark-rule role-axis-domain" pointer-events="none"><line transform="translate(0,0)" x2="600" y2="0" stroke="#888" stroke-width="1" opacity="1"/></g><g class="mark-text role-axis-title" pointer-events="none"><text text-anchor="middle" transform="translate(300,31)" font-family="sans-serif" font-size="12px" font-weight="bold" fill="#000" opacity="1">genomes</text></g></g><path class="foreground" aria-hidden="true" d="" pointer-events="none" display="none"/></g></g><g class="mark-group role-axis" role="graphics-symbol" aria-roledescription="axis" aria-label="Y-axis titled 'CPU time (min)' for a linear scale with values from 0 to 2,000"><g transform="translate(0.5,0.5)"><path class="background" aria-hidden="true" d="M0,0h0v0h0Z" pointer-events="none"/><g><g class="mark-rule role-axis-tick" pointer-events="none"><line transform="translate(0,300)" x2="-5" y2="0" stroke="#888" stroke-width="1" opacity="1"/><line transform="translate(0,270)" x2="-5" y2="0" stroke="#888" stroke-width="1" opacity="1"/><line transform="translate(0,240)" x2="-5" y2="0" stroke="#888" stroke-width="1" opacity="1"/><line transform="translate(0,210)" x2="-5" y2="0" stroke="#888" stroke-width="1" opacity="1"/><line transform="translate(0,180)" x2="-5" y2="0" stroke="#888" stroke-width="1" opacity="1"/><line transform="translate(0,150)" x2="-5" y2="0" stroke="#888" stroke-width="1" opacity="1"/><line transform="translate(0,120)" x2="-5" y2="0" stroke="#888" stroke-width="1" opacity="1"/><line transform="translate(0,90)" x2="-5" y2="0" stroke="#888" stroke-width="1" opacity="1"/><line transform="translate(0,60)" x2="-5" y2="0" stroke="#888" stroke-width="1" opacity="1"/><line transform="translate(0,30)" x2="-5" y2="0" stroke="#888" stroke-width="1" opacity="1"/><line transform="translate(0,0)" x2="-5" y2="0" stroke="#888" stroke-width="1" opacity="1"/></g><g class="mark-text role-axis-label" pointer-events="none"><text text-anchor="end" transform="translate(-7,304)" font-family="sans-serif" font-size="12px" fill="#000" opacity="1">0</text><text text-anchor="end" transform="translate(-7,274)" font-family="sans-serif" font-size="12px" fill="#000" opacity="1">200</text><text text-anchor="end" transform="translate(-7,244)" font-family="sans-serif" font-size="12px" fill="#000" opacity="1">400</text><text text-anchor="end" transform="translate(-7,214)" font-family="sans-serif" font-size="12px" fill="#000" opacity="1">600</text><text text-anchor="end" transform="translate(-7,184)" font-family="sans-serif" font-size="12px" fill="#000" opacity="1">800</text><text text-anchor="end" transform="translate(-7,154)" font-family="sans-serif" font-size="12px" fill="#000" opacity="1">1,000</text><text text-anchor="end" transform="translate(-7,124)" font-family="sans-serif" font-size="12px" fill="#000" opacity="1">1,200</text><text text-anchor="end" transform="translate(-7,94.00000000000001)" font-family="sans-serif" font-size="12px" fill="#000" opacity="1">1,400</text><text text-anchor="end" transform="translate(-7,63.999999999999986)" font-family="sans-serif" font-size="12px" fill="#000" opacity="1">1,600</text><text text-anchor="end" transform="translate(-7,33.99999999999999)" font-family="sans-serif" font-size="12px" fill="#000" opacity="1">1,800</text><text text-anchor="end" transform="translate(-7,4)" font-family="sans-serif" font-size="12px" fill="#000" opacity="1">2,000</text></g><g class="mark-rule role-axis-domain" pointer-events="none"><line transform="translate(0,300)" x2="0" y2="-300" stroke="#888" stroke-width="1" opacity="1"/></g><g class="mark-text role-axis-title" pointer-events="none"><text text-anchor="middle" transform="translate(-41.029296875,150) rotate(-90) translate(0,-3)" font-family="sans-serif" font-size="12px" font-weight="bold" fill="#000" opacity="1">CPU time (min)</text></g></g><path class="foreground" aria-hidden="true" d="" pointer-events="none" display="none"/></g></g><g class="mark-group role-scope layer_0_pathgroup" role="graphics-object" aria-roledescription="group mark container"><g transform="translate(0,0)"><path class="background" aria-hidden="true" d="M0,0h600v300h-600Z"/><g><g class="mark-line role-mark layer_0_marks" role="graphics-object" aria-roledescription="line mark container"><path aria-label="genomes: 1; CPU time (min): 4.17666666667; tool: CAMISIM v1.3; total_sequence_length: 3502975; number_of_contigs: 2; bases: 3502975; reads: 17514.875" role="graphics-symbol" aria-roledescription="line mark" d="M0.923,299.374L1.846,298.67L2.769,299.235L3.692,298.576L4.615,296.245L5.538,296.659L6.462,297.822L7.385,294.745L8.308,294.209L9.231,294.919L18.462,290.478L36.923,284.832L73.846,256.963L147.692,230.83L295.385,156.132L590.769,12.596" stroke="#4c78a8" stroke-width="2"/></g></g><path class="foreground" aria-hidden="true" d="" display="none"/></g><g transform="translate(0,0)"><path class="background" aria-hidden="true" d="M0,0h600v300h-600Z"/><g><g class="mark-line role-mark layer_0_marks" role="graphics-object" aria-roledescription="line mark container"><path aria-label="genomes: 1; CPU time (min): 0.917466666667; tool: MeSS v0.8.0; total_sequence_length: 3502975; number_of_contigs: 2; bases: 3502975; reads: 17514.875" role="graphics-symbol" aria-roledescription="line mark" d="M0.923,299.862L1.846,299.779L2.769,299.762L3.692,299.727L4.615,299.698L5.538,299.599L6.462,299.637L7.385,299.436L8.308,299.496L9.231,299.352L18.462,299.05L36.923,297.909L73.846,296.089L147.692,292.814L295.385,285.848L590.769,272.972" stroke="#f58518" stroke-width="2"/></g></g><path class="foreground" aria-hidden="true" d="" display="none"/></g></g><g class="mark-symbol role-mark layer_1_marks" role="graphics-object" aria-roledescription="symbol mark container"><path aria-label="genomes: 1; CPU time (min): 4.17666666667; tool: CAMISIM v1.3; total_sequence_length: 3502975; number_of_contigs: 2; bases: 3502975; reads: 17514.875" role="graphics-symbol" aria-roledescription="point" transform="translate(0.9230769230769231,299.3735)" d="M2.739,0A2.739,2.739,0,1,1,-2.739,0A2.739,2.739,0,1,1,2.739,0" fill="#4c78a8" stroke-width="2" opacity="1"/><path aria-label="genomes: 3; CPU time (min): 5.09948333333; tool: CAMISIM v1.3; total_sequence_length: 6774179; number_of_contigs: 9; bases: 6774179; reads: 33870.895" role="graphics-symbol" aria-roledescription="point" transform="translate(2.7692307692307696,299.2350775)" d="M2.739,0A2.739,2.739,0,1,1,-2.739,0A2.739,2.739,0,1,1,2.739,0" fill="#4c78a8" stroke-width="2" opacity="1"/><path aria-label="genomes: 2; CPU time (min): 8.86425; tool: CAMISIM v1.3; total_sequence_length: 8160866; number_of_contigs: 3; bases: 8160866; reads: 40804.33" role="graphics-symbol" aria-roledescription="point" transform="translate(1.8461538461538463,298.6703625)" d="M2.739,0A2.739,2.739,0,1,1,-2.739,0A2.739,2.739,0,1,1,2.739,0" fill="#4c78a8" stroke-width="2" opacity="1"/><path aria-label="genomes: 4; CPU time (min): 9.492; tool: CAMISIM v1.3; total_sequence_length: 10175797; number_of_contigs: 8; bases: 10175797; reads: 50878.985" role="graphics-symbol" aria-roledescription="point" transform="translate(3.6923076923076925,298.5762)" d="M2.739,0A2.739,2.739,0,1,1,-2.739,0A2.739,2.739,0,1,1,2.739,0" fill="#4c78a8" stroke-width="2" opacity="1"/><path aria-label="genomes: 7; CPU time (min): 14.522; tool: CAMISIM v1.3; total_sequence_length: 20558298; number_of_contigs: 10; bases: 20558298; reads: 102791.49" role="graphics-symbol" aria-roledescription="point" transform="translate(6.461538461538462,297.8217)" d="M2.739,0A2.739,2.739,0,1,1,-2.739,0A2.739,2.739,0,1,1,2.739,0" fill="#4c78a8" stroke-width="2" opacity="1"/><path aria-label="genomes: 5; CPU time (min): 25.0325; tool: CAMISIM v1.3; total_sequence_length: 21563198; number_of_contigs: 7; bases: 21563198; reads: 107815.99" role="graphics-symbol" aria-roledescription="point" transform="translate(4.615384615384616,296.245125)" d="M2.739,0A2.739,2.739,0,1,1,-2.739,0A2.739,2.739,0,1,1,2.739,0" fill="#4c78a8" stroke-width="2" opacity="1"/><path aria-label="genomes: 6; CPU time (min): 22.27595; tool: CAMISIM v1.3; total_sequence_length: 25055301; number_of_contigs: 12; bases: 25055301; reads: 125276.505" role="graphics-symbol" aria-roledescription="point" transform="translate(5.538461538461539,296.6586075)" d="M2.739,0A2.739,2.739,0,1,1,-2.739,0A2.739,2.739,0,1,1,2.739,0" fill="#4c78a8" stroke-width="2" opacity="1"/><path aria-label="genomes: 9; CPU time (min): 38.6084; tool: CAMISIM v1.3; total_sequence_length: 35105455; number_of_contigs: 17; bases: 35105455; reads: 175527.275" role="graphics-symbol" aria-roledescription="point" transform="translate(8.307692307692308,294.20874)" d="M2.739,0A2.739,2.739,0,1,1,-2.739,0A2.739,2.739,0,1,1,2.739,0" fill="#4c78a8" stroke-width="2" opacity="1"/><path aria-label="genomes: 8; CPU time (min): 35.033; tool: CAMISIM v1.3; total_sequence_length: 35319318; number_of_contigs: 13; bases: 35319318; reads: 176596.59" role="graphics-symbol" aria-roledescription="point" transform="translate(7.384615384615385,294.74505)" d="M2.739,0A2.739,2.739,0,1,1,-2.739,0A2.739,2.739,0,1,1,2.739,0" fill="#4c78a8" stroke-width="2" opacity="1"/><path aria-label="genomes: 10; CPU time (min): 33.8734; tool: CAMISIM v1.3; total_sequence_length: 39823809; number_of_contigs: 20; bases: 39823809; reads: 199119.045" role="graphics-symbol" aria-roledescription="point" transform="translate(9.230769230769232,294.91899)" d="M2.739,0A2.739,2.739,0,1,1,-2.739,0A2.739,2.739,0,1,1,2.739,0" fill="#4c78a8" stroke-width="2" opacity="1"/><path aria-label="genomes: 20; CPU time (min): 63.4832; tool: CAMISIM v1.3; total_sequence_length: 70722151; number_of_contigs: 28; bases: 70722151; reads: 353610.755" role="graphics-symbol" aria-roledescription="point" transform="translate(18.461538461538463,290.47751999999997)" d="M2.739,0A2.739,2.739,0,1,1,-2.739,0A2.739,2.739,0,1,1,2.739,0" fill="#4c78a8" stroke-width="2" opacity="1"/><path aria-label="genomes: 40; CPU time (min): 101.119666667; tool: CAMISIM v1.3; total_sequence_length: 138120060; number_of_contigs: 75; bases: 138120060; reads: 690600.3" role="graphics-symbol" aria-roledescription="point" transform="translate(36.92307692307693,284.83205)" d="M2.739,0A2.739,2.739,0,1,1,-2.739,0A2.739,2.739,0,1,1,2.739,0" fill="#4c78a8" stroke-width="2" opacity="1"/><path aria-label="genomes: 80; CPU time (min): 286.911916667; tool: CAMISIM v1.3; total_sequence_length: 319489510; number_of_contigs: 125; bases: 319489510; reads: 1597447.55" role="graphics-symbol" aria-roledescription="point" transform="translate(73.84615384615385,256.96321250000005)" d="M2.739,0A2.739,2.739,0,1,1,-2.739,0A2.739,2.739,0,1,1,2.739,0" fill="#4c78a8" stroke-width="2" opacity="1"/><path aria-label="genomes: 160; CPU time (min): 461.1337; tool: CAMISIM v1.3; total_sequence_length: 579788569; number_of_contigs: 260; bases: 579788569; reads: 2898942.845" role="graphics-symbol" aria-roledescription="point" transform="translate(147.6923076923077,230.829945)" d="M2.739,0A2.739,2.739,0,1,1,-2.739,0A2.739,2.739,0,1,1,2.739,0" fill="#4c78a8" stroke-width="2" opacity="1"/><path aria-label="genomes: 320; CPU time (min): 959.1218; tool: CAMISIM v1.3; total_sequence_length: 1205375444; number_of_contigs: 538; bases: 1205375444; reads: 6026877.22" role="graphics-symbol" aria-roledescription="point" transform="translate(295.3846153846154,156.13172999999998)" d="M2.739,0A2.739,2.739,0,1,1,-2.739,0A2.739,2.739,0,1,1,2.739,0" fill="#4c78a8" stroke-width="2" opacity="1"/><path aria-label="genomes: 640; CPU time (min): 1916.02491667; tool: CAMISIM v1.3; total_sequence_length: 2394501105; number_of_contigs: 1056; bases: 2394501105; reads: 11972505.525" role="graphics-symbol" aria-roledescription="point" transform="translate(590.7692307692308,12.596262500000021)" d="M2.739,0A2.739,2.739,0,1,1,-2.739,0A2.739,2.739,0,1,1,2.739,0" fill="#4c78a8" stroke-width="2" opacity="1"/><path aria-label="genomes: 1; CPU time (min): 0.917466666667; tool: MeSS v0.8.0; total_sequence_length: 3502975; number_of_contigs: 2; bases: 3502975; reads: 17514.875" role="graphics-symbol" aria-roledescription="point" transform="translate(0.9230769230769231,299.86238)" d="M2.739,0A2.739,2.739,0,1,1,-2.739,0A2.739,2.739,0,1,1,2.739,0" fill="#f58518" stroke-width="2" opacity="1"/><path aria-label="genomes: 3; CPU time (min): 1.58343; tool: MeSS v0.8.0; total_sequence_length: 6774179; number_of_contigs: 9; bases: 6774179; reads: 33870.895" role="graphics-symbol" aria-roledescription="point" transform="translate(2.7692307692307696,299.7624855)" d="M2.739,0A2.739,2.739,0,1,1,-2.739,0A2.739,2.739,0,1,1,2.739,0" fill="#f58518" stroke-width="2" opacity="1"/><path aria-label="genomes: 2; CPU time (min): 1.47256; tool: MeSS v0.8.0; total_sequence_length: 8160866; number_of_contigs: 3; bases: 8160866; reads: 40804.33" role="graphics-symbol" aria-roledescription="point" transform="translate(1.8461538461538463,299.779116)" d="M2.739,0A2.739,2.739,0,1,1,-2.739,0A2.739,2.739,0,1,1,2.739,0" fill="#f58518" stroke-width="2" opacity="1"/><path aria-label="genomes: 4; CPU time (min): 1.81960833333; tool: MeSS v0.8.0; total_sequence_length: 10175797; number_of_contigs: 8; bases: 10175797; reads: 50878.985" role="graphics-symbol" aria-roledescription="point" transform="translate(3.6923076923076925,299.72705875)" d="M2.739,0A2.739,2.739,0,1,1,-2.739,0A2.739,2.739,0,1,1,2.739,0" fill="#f58518" stroke-width="2" opacity="1"/><path aria-label="genomes: 7; CPU time (min): 2.41952666667; tool: MeSS v0.8.0; total_sequence_length: 20558298; number_of_contigs: 10; bases: 20558298; reads: 102791.49" role="graphics-symbol" aria-roledescription="point" transform="translate(6.461538461538462,299.637071)" d="M2.739,0A2.739,2.739,0,1,1,-2.739,0A2.739,2.739,0,1,1,2.739,0" fill="#f58518" stroke-width="2" opacity="1"/><path aria-label="genomes: 5; CPU time (min): 2.01071333333; tool: MeSS v0.8.0; total_sequence_length: 21563198; number_of_contigs: 7; bases: 21563198; reads: 107815.99" role="graphics-symbol" aria-roledescription="point" transform="translate(4.615384615384616,299.698393)" d="M2.739,0A2.739,2.739,0,1,1,-2.739,0A2.739,2.739,0,1,1,2.739,0" fill="#f58518" stroke-width="2" opacity="1"/><path aria-label="genomes: 6; CPU time (min): 2.673525; tool: MeSS v0.8.0; total_sequence_length: 25055301; number_of_contigs: 12; bases: 25055301; reads: 125276.505" role="graphics-symbol" aria-roledescription="point" transform="translate(5.538461538461539,299.59897125)" d="M2.739,0A2.739,2.739,0,1,1,-2.739,0A2.739,2.739,0,1,1,2.739,0" fill="#f58518" stroke-width="2" opacity="1"/><path aria-label="genomes: 9; CPU time (min): 3.35694333333; tool: MeSS v0.8.0; total_sequence_length: 35105455; number_of_contigs: 17; bases: 35105455; reads: 175527.275" role="graphics-symbol" aria-roledescription="point" transform="translate(8.307692307692308,299.4964585)" d="M2.739,0A2.739,2.739,0,1,1,-2.739,0A2.739,2.739,0,1,1,2.739,0" fill="#f58518" stroke-width="2" opacity="1"/><path aria-label="genomes: 8; CPU time (min): 3.76257; tool: MeSS v0.8.0; total_sequence_length: 35319318; number_of_contigs: 13; bases: 35319318; reads: 176596.59" role="graphics-symbol" aria-roledescription="point" transform="translate(7.384615384615385,299.4356145)" d="M2.739,0A2.739,2.739,0,1,1,-2.739,0A2.739,2.739,0,1,1,2.739,0" fill="#f58518" stroke-width="2" opacity="1"/><path aria-label="genomes: 10; CPU time (min): 4.31713333333; tool: MeSS v0.8.0; total_sequence_length: 39823809; number_of_contigs: 20; bases: 39823809; reads: 199119.045" role="graphics-symbol" aria-roledescription="point" transform="translate(9.230769230769232,299.35242999999997)" d="M2.739,0A2.739,2.739,0,1,1,-2.739,0A2.739,2.739,0,1,1,2.739,0" fill="#f58518" stroke-width="2" opacity="1"/><path aria-label="genomes: 20; CPU time (min): 6.33373; tool: MeSS v0.8.0; total_sequence_length: 70722151; number_of_contigs: 28; bases: 70722151; reads: 353610.755" role="graphics-symbol" aria-roledescription="point" transform="translate(18.461538461538463,299.0499405)" d="M2.739,0A2.739,2.739,0,1,1,-2.739,0A2.739,2.739,0,1,1,2.739,0" fill="#f58518" stroke-width="2" opacity="1"/><path aria-label="genomes: 40; CPU time (min): 13.9405; tool: MeSS v0.8.0; total_sequence_length: 138120060; number_of_contigs: 75; bases: 138120060; reads: 690600.3" role="graphics-symbol" aria-roledescription="point" transform="translate(36.92307692307693,297.908925)" d="M2.739,0A2.739,2.739,0,1,1,-2.739,0A2.739,2.739,0,1,1,2.739,0" fill="#f58518" stroke-width="2" opacity="1"/><path aria-label="genomes: 80; CPU time (min): 26.0745666667; tool: MeSS v0.8.0; total_sequence_length: 319489510; number_of_contigs: 125; bases: 319489510; reads: 1597447.55" role="graphics-symbol" aria-roledescription="point" transform="translate(73.84615384615385,296.088815)" d="M2.739,0A2.739,2.739,0,1,1,-2.739,0A2.739,2.739,0,1,1,2.739,0" fill="#f58518" stroke-width="2" opacity="1"/><path aria-label="genomes: 160; CPU time (min): 47.9043; tool: MeSS v0.8.0; total_sequence_length: 579788569; number_of_contigs: 260; bases: 579788569; reads: 2898942.845" role="graphics-symbol" aria-roledescription="point" transform="translate(147.6923076923077,292.81435500000003)" d="M2.739,0A2.739,2.739,0,1,1,-2.739,0A2.739,2.739,0,1,1,2.739,0" fill="#f58518" stroke-width="2" opacity="1"/><path aria-label="genomes: 320; CPU time (min): 94.35; tool: MeSS v0.8.0; total_sequence_length: 1205375444; number_of_contigs: 538; bases: 1205375444; reads: 6026877.22" role="graphics-symbol" aria-roledescription="point" transform="translate(295.3846153846154,285.8475)" d="M2.739,0A2.739,2.739,0,1,1,-2.739,0A2.739,2.739,0,1,1,2.739,0" fill="#f58518" stroke-width="2" opacity="1"/><path aria-label="genomes: 640; CPU time (min): 180.186; tool: MeSS v0.8.0; total_sequence_length: 2394501105; number_of_contigs: 1056; bases: 2394501105; reads: 11972505.525" role="graphics-symbol" aria-roledescription="point" transform="translate(590.7692307692308,272.9721)" d="M2.739,0A2.739,2.739,0,1,1,-2.739,0A2.739,2.739,0,1,1,2.739,0" fill="#f58518" stroke-width="2" opacity="1"/></g><g class="mark-group role-legend" role="graphics-symbol" aria-roledescription="legend" aria-label="Symbol legend titled 'tool' for fill color and stroke color with 2 values: CAMISIM v1.3, MeSS v0.8.0"><g transform="translate(618,0)"><path class="background" aria-hidden="true" d="M0,0h81v45h-81Z" pointer-events="none"/><g><g class="mark-group role-legend-entry"><g transform="translate(0,16)"><path class="background" aria-hidden="true" d="M0,0h0v0h0Z" pointer-events="none"/><g><g class="mark-group role-scope" role="graphics-object" aria-roledescription="group mark container"><g transform="translate(0,0)"><path class="background" aria-hidden="true" d="M0,0h80.4580078125v12.5h-80.4580078125Z" pointer-events="none" opacity="1"/><g><g class="mark-symbol role-legend-symbol" pointer-events="none"><path transform="translate(6,6)" d="M5,0A5,5,0,1,1,-5,0A5,5,0,1,1,5,0" fill="#4c78a8" stroke="#4c78a8" stroke-width="1.5" opacity="1"/></g><g class="mark-text role-legend-label" pointer-events="none"><text text-anchor="start" transform="translate(16,9)" font-family="sans-serif" font-size="10px" fill="#000" opacity="1">CAMISIM v1.3</text></g></g><path class="foreground" aria-hidden="true" d="" pointer-events="none" display="none"/></g><g transform="translate(0,16)"><path class="background" aria-hidden="true" d="M0,0h80.4580078125v12.5h-80.4580078125Z" pointer-events="none" opacity="1"/><g><g class="mark-symbol role-legend-symbol" pointer-events="none"><path transform="translate(6,6)" d="M5,0A5,5,0,1,1,-5,0A5,5,0,1,1,5,0" fill="#f58518" stroke="#f58518" stroke-width="1.5" opacity="1"/></g><g class="mark-text role-legend-label" pointer-events="none"><text text-anchor="start" transform="translate(16,9)" font-family="sans-serif" font-size="10px" fill="#000" opacity="1">MeSS v0.8.0</text></g></g><path class="foreground" aria-hidden="true" d="" pointer-events="none" display="none"/></g></g></g><path class="foreground" aria-hidden="true" d="" pointer-events="none" display="none"/></g></g><g class="mark-text role-legend-title" pointer-events="none"><text text-anchor="start" transform="translate(0,9)" font-family="sans-serif" font-size="11px" font-weight="bold" fill="#000" opacity="1">tool</text></g></g><path class="foreground" aria-hidden="true" d="" pointer-events="none" display="none"/></g></g></g><path class="foreground" aria-hidden="true" d="" display="none"/></g></g></g></svg>